<svg xmlns="http://www.w3.org/2000/svg" width="202" height="141" viewBox="0 0 202 141">
    <g fill="none">
        <path fill="#5A6977" d="M12.876 135.41h-2.175L2.44 122.765v12.645H.264V119H2.44l8.283 12.702V119h2.153v16.41zm2.964-6.21c0-1.194.235-2.269.705-3.223.47-.954 1.123-1.69 1.96-2.21.838-.518 1.795-.777 2.869-.777 1.66 0 3.004.575 4.03 1.725 1.025 1.15 1.538 2.678 1.538 4.587v.146c0 1.187-.228 2.252-.682 3.195-.455.943-1.105 1.678-1.95 2.204-.845.526-1.816.789-2.913.789-1.653 0-2.993-.575-4.018-1.725-1.026-1.15-1.539-2.67-1.539-4.564v-.147zm2.096.248c0 1.353.314 2.438.942 3.257.627.82 1.467 1.229 2.519 1.229 1.059 0 1.9-.415 2.524-1.246.624-.83.936-1.993.936-3.488 0-1.337-.318-2.421-.953-3.251-.635-.83-1.478-1.246-2.53-1.246-1.03 0-1.86.41-2.49 1.229-.632.819-.948 1.99-.948 3.516zm19.825-.462v6.424h-2.164V119h6.053c1.795 0 3.202.459 4.22 1.375 1.018.917 1.528 2.13 1.528 3.64 0 1.594-.498 2.82-1.494 3.68-.995.86-2.421 1.291-4.277 1.291h-3.866zm0-1.77h3.889c1.157 0 2.043-.272 2.66-.817.616-.544.924-1.331.924-2.36 0-.977-.308-1.759-.925-2.345-.616-.586-1.461-.89-2.535-.913H37.76v6.436zm14.156-2.524c.924-1.135 2.126-1.702 3.607-1.702 2.577 0 3.877 1.454 3.9 4.362v8.058h-2.086v-8.07c-.007-.879-.208-1.528-.603-1.95-.394-.42-1.009-.63-1.843-.63-.676 0-1.27.18-1.78.54-.511.361-.91.835-1.195 1.42v8.69h-2.085V118.1h2.085v6.593zm10.076 4.508c0-1.194.235-2.269.704-3.223.47-.954 1.124-1.69 1.961-2.21.838-.518 1.794-.777 2.869-.777 1.66 0 3.003.575 4.029 1.725 1.025 1.15 1.538 2.678 1.538 4.587v.146c0 1.187-.227 2.252-.682 3.195-.454.943-1.104 1.678-1.95 2.204-.845.526-1.816.789-2.913.789-1.653 0-2.992-.575-4.018-1.725-1.025-1.15-1.538-2.67-1.538-4.564v-.147zm2.096.248c0 1.353.314 2.438.941 3.257.628.82 1.467 1.229 2.52 1.229 1.059 0 1.9-.415 2.524-1.246.623-.83.935-1.993.935-3.488 0-1.337-.317-2.421-.952-3.251-.635-.83-1.478-1.246-2.53-1.246-1.03 0-1.86.41-2.491 1.229-.631.819-.947 1.99-.947 3.516zm14.449-9.185v2.953h2.277v1.611h-2.277v7.563c0 .488.101.854.304 1.099.203.244.549.366 1.037.366.24 0 .571-.045.992-.135v1.69c-.549.15-1.082.226-1.6.226-.932 0-1.635-.282-2.108-.846-.473-.563-.71-1.363-.71-2.4v-7.563h-2.22v-1.611h2.22v-2.953h2.085zm4.159 8.937c0-1.194.235-2.269.704-3.223.47-.954 1.123-1.69 1.961-2.21.838-.518 1.794-.777 2.869-.777 1.66 0 3.003.575 4.029 1.725 1.025 1.15 1.538 2.678 1.538 4.587v.146c0 1.187-.227 2.252-.682 3.195-.454.943-1.104 1.678-1.95 2.204-.845.526-1.816.789-2.913.789-1.653 0-2.992-.575-4.018-1.725-1.025-1.15-1.538-2.67-1.538-4.564v-.147zm2.096.248c0 1.353.314 2.438.941 3.257.628.82 1.467 1.229 2.52 1.229 1.059 0 1.9-.415 2.524-1.246.623-.83.935-1.993.935-3.488 0-1.337-.317-2.421-.952-3.251-.635-.83-1.479-1.246-2.53-1.246-1.03 0-1.86.41-2.491 1.229-.631.819-.947 1.99-.947 3.516zm18.72 2.728c0-.564-.212-1.002-.636-1.313-.372-.273-.985-.513-1.84-.72l-.38-.086c-1.056-.226-1.894-.496-2.514-.812-.62-.315-1.078-.691-1.375-1.127-.297-.436-.445-.954-.445-1.555 0-1 .422-1.845 1.268-2.536.845-.691 1.925-1.037 3.24-1.037 1.382 0 2.504.357 3.364 1.07.86.715 1.29 1.628 1.29 2.74h-2.096c0-.571-.242-1.064-.727-1.477-.484-.413-1.095-.62-1.831-.62-.759 0-1.353.166-1.78.496-.43.33-.643.763-.643 1.296 0 .504.199.883.597 1.139.349.223.943.438 1.783.644l.375.088c1.041.233 1.884.511 2.53.834.647.323 1.126.712 1.438 1.167.311.454.467 1.008.467 1.662 0 1.09-.435 1.963-1.307 2.62-.872.658-2.002.987-3.392.987-.977 0-1.841-.173-2.593-.519-.751-.345-1.339-.828-1.763-1.448-.425-.62-.637-1.29-.637-2.012h2.085c.037.699.317 1.253.84 1.663.522.41 1.211.614 2.068.614.789 0 1.422-.16 1.899-.48.477-.319.715-.745.715-1.278zm16.861-3.404h-3.855v6.638h-2.175V119h5.433c1.848 0 3.27.421 4.266 1.263.995.841 1.493 2.066 1.493 3.674 0 1.022-.276 1.912-.829 2.671-.552.759-1.32 1.326-2.304 1.702l3.854 6.965v.135h-2.322l-3.561-6.638zm-3.855-1.77h3.325c1.075 0 1.93-.278 2.564-.834.635-.556.953-1.3.953-2.231 0-1.014-.303-1.792-.908-2.333-.604-.541-1.478-.815-2.62-.823h-3.314v6.221zm16.782 8.634c-1.653 0-2.998-.543-4.035-1.629-1.036-1.086-1.555-2.538-1.555-4.356v-.383c0-1.21.231-2.29.693-3.24.462-.95 1.108-1.695 1.939-2.232.83-.537 1.73-.806 2.699-.806 1.585 0 2.818.522 3.697 1.567.879 1.044 1.318 2.54 1.318 4.485v.868h-8.26c.03 1.202.38 2.174 1.053 2.914.672.74 1.527 1.11 2.564 1.11.736 0 1.36-.15 1.87-.451.512-.3.959-.699 1.342-1.195l1.274.992c-1.022 1.57-2.555 2.356-4.599 2.356zm-.259-10.933c-.842 0-1.548.306-2.119.919-.57.612-.924 1.47-1.06 2.575h6.11v-.158c-.06-1.06-.346-1.88-.857-2.462-.511-.583-1.202-.874-2.074-.874zm6.92 4.508c0-1.916.44-3.431 1.319-4.547.879-1.116 2.058-1.674 3.539-1.674 1.442 0 2.58.485 3.415 1.454l.09-1.228h1.916v16.883h-2.085v-5.816c-.842.902-1.961 1.353-3.359 1.353-1.473 0-2.647-.573-3.522-1.72-.796-1.04-1.23-2.391-1.302-4.05l-.01-.655zm2.085.237c0 1.398.295 2.495.885 3.291.59.797 1.384 1.195 2.384 1.195 1.24 0 2.186-.549 2.84-1.646v-5.973c-.661-1.074-1.6-1.612-2.818-1.612-1.007 0-1.807.4-2.4 1.2-.594.8-.89 1.982-.89 3.545zm19.07 4.756c-.812.955-2.003 1.432-3.573 1.432-1.3 0-2.29-.378-2.97-1.133-.68-.755-1.023-1.873-1.031-3.353v-7.934h2.085v7.878c0 1.848.751 2.772 2.254 2.772 1.593 0 2.652-.593 3.178-1.78v-8.87h2.085v12.194h-1.983l-.045-1.206zm7.46 1.206h-2.084v-12.194h2.085v12.194zm-2.253-15.43c0-.337.103-.623.31-.856.206-.233.513-.349.918-.349.406 0 .714.116.924.35.21.232.316.518.316.856 0 .338-.105.62-.316.845-.21.226-.518.338-.924.338-.405 0-.712-.112-.918-.338-.207-.225-.31-.507-.31-.845zm11.484 5.106c-.315-.052-.657-.078-1.025-.078-1.368 0-2.296.582-2.784 1.747v8.655h-2.085v-12.194h2.029l.033 1.408c.684-1.09 1.653-1.634 2.908-1.634.406 0 .714.053.924.158v1.938zm6.977 10.55c-1.653 0-2.998-.543-4.035-1.629-1.037-1.086-1.555-2.538-1.555-4.356v-.383c0-1.21.23-2.29.693-3.24.462-.95 1.108-1.695 1.938-2.232.83-.537 1.73-.806 2.7-.806 1.585 0 2.817.522 3.696 1.567.88 1.044 1.319 2.54 1.319 4.485v.868h-8.261c.03 1.202.381 2.174 1.054 2.914.672.74 1.527 1.11 2.564 1.11.736 0 1.36-.15 1.87-.451.511-.3.958-.699 1.342-1.195l1.273.992c-1.022 1.57-2.554 2.356-4.598 2.356zm-.26-10.933c-.84 0-1.547.306-2.118.919-.571.612-.924 1.47-1.06 2.575h6.109v-.158c-.06-1.06-.346-1.88-.857-2.462-.51-.583-1.202-.874-2.073-.874zm17.21-6.604v17.311h-1.915l-.102-1.307c-.834 1.022-1.995 1.533-3.482 1.533-1.413 0-2.564-.579-3.455-1.736-.89-1.157-1.335-2.667-1.335-4.53v-.159c0-1.87.443-3.375 1.33-4.513.886-1.139 2.047-1.708 3.482-1.708 1.428 0 2.559.489 3.393 1.465V118.1h2.085zm-4.958 6.66c-1.022 0-1.819.395-2.39 1.184-.57.789-.856 1.957-.856 3.505 0 1.383.285 2.465.856 3.246.571.781 1.36 1.172 2.367 1.172 1.323 0 2.288-.593 2.897-1.78v-5.602c-.624-1.15-1.582-1.724-2.874-1.724z" transform="translate(0 .725)"/>
        <g opacity=".412">
            <g opacity=".66" transform="translate(0 .725) translate(47.5)">
                <path fill="#5A6977" stroke="#5A6977" stroke-width="2.485" d="M36.588 2.24h9.04c.357 0 .7.142.952.394s.394.595.394.951v5.199h-11.73V3.585c0-.743.601-1.345 1.344-1.345h0z"/>
                <rect width="107.736" height="71.301" y="6.897" fill="#EFF2F4" stroke="#3C117F" stroke-width="3.369" rx="4.469"/>
                <path fill="#A3AFBA" stroke="#5A6977" stroke-width="3.369" d="M0 36.526H107.736V68.423H0z"/>
                <path fill="#EFF2F4" stroke="#3C117F" stroke-width="3.369" d="M1.744 36.526L106.088 36.526M1.744 68.423L106.088 68.423"/>
                <path fill="#CDD5DC" stroke="#5A6977" stroke-width="3.369" d="M107.736 11.36v25.166H.006V11.36c.003-2.466 2.003-4.463 4.468-4.463h98.793c2.466 0 4.466 1.997 4.469 4.463z"/>
                <path fill="#5A6977" stroke="#5A6977" stroke-width=".57" d="M10.665 0H28.59c1.008 0 1.824.817 1.824 1.824v4.72H8.846v-4.72C8.846.819 9.66.004 10.665 0zM79.777 2.6h17.67c.457 0 .827.37.827.826V7.5H78.956V3.426c0-.455.367-.824.821-.827z"/>
                <path fill="#5A6977" d="M82.94 1.5h11.4c.293 0 .53.236.53.53V4.65H82.41V2.03c0-.293.238-.53.53-.53z"/>
                <path fill="#EFF2F4" stroke="#5A6977" stroke-width="3.369" d="M107.736 68.423v5.312c0 2.468-2.001 4.469-4.47 4.469H4.47C2 78.204 0 76.204 0 73.735V68.43l107.736-.006z"/>
                <circle cx="53.871" cy="42.55" r="27.577" fill="#CDD5DC" stroke="#5A6977" stroke-width="3.369"/>
                <circle cx="53.871" cy="42.55" r="20.571" fill="#A3AFBA" stroke="#5A6977" stroke-width="3.369"/>
                <circle cx="53.871" cy="42.55" r="14.963" fill="#242F35" opacity=".58"/>
            </g>
            <path fill="#5A6977" d="M102.134 100.846c-10.754 0-20.449-6.479-24.564-16.414-4.115-9.936-1.839-21.372 5.766-28.976 7.605-7.603 19.041-9.877 28.976-5.76 9.935 4.117 16.412 13.813 16.41 24.567-.017 14.676-11.911 26.569-26.588 26.583z" transform="translate(0 .725) translate(47.5)"/>
            <path fill="#FFF" d="M102.134 49.425c10.053-.002 19.117 6.052 22.965 15.339 3.848 9.287 1.723 19.977-5.384 27.086-7.108 7.109-17.798 9.236-27.085 5.39-9.288-3.847-15.344-12.91-15.344-22.962 0-13.724 11.124-24.85 24.848-24.853m0-3.469c-15.641 0-28.322 12.68-28.322 28.322s12.68 28.322 28.322 28.322 28.322-12.68 28.322-28.322c-.016-15.635-12.687-28.305-28.322-28.322z" transform="translate(0 .725) translate(47.5)"/>
            <path fill="#FFF" d="M105.311 74.278l4.767 4.763c.283.275.439.656.432 1.05.002.407-.153.8-.432 1.095l-1.045 1.051c-.3.276-.693.428-1.1.426-.393.007-.77-.147-1.046-.426l-4.767-4.767-4.738 4.767c-.275.28-.653.434-1.046.426-.406.002-.797-.15-1.095-.426l-1.05-1.05c-.278-.297-.43-.69-.427-1.096-.009-.394.145-.774.426-1.05l4.768-4.763-4.768-4.767c-.281-.276-.436-.657-.426-1.05-.004-.407.149-.8.426-1.096l1.051-1.046c.296-.279.688-.433 1.095-.43.394-.01.773.147 1.046.43l4.767 4.763 4.768-4.763c.274-.282.652-.438 1.045-.43.409-.003.802.151 1.1.43l1.046 1.046c.279.296.433.688.431 1.095.009.395-.148.776-.43 1.05l-4.798 4.768z" transform="translate(0 .725) translate(47.5)"/>
        </g>
    </g>
</svg>
