<svg xmlns="http://www.w3.org/2000/svg" width="279" height="90" viewBox="0 0 279 90">
    <g fill="none" fill-rule="evenodd">
        <g stroke="#636A74" stroke-linecap="round" stroke-linejoin="round">
            <path d="M27.67 57.107S7.444 55.935 3.013 54.474c0 0-1.779-.47-2.109-2.45 0 0-1.658-9.645-.159-15.268 0 0 .32-.974.783-1.489 0 0 .461-4.13 1.9-4.774 0 0 2.454-5.575 23.617-11.416 0 0 20.712-16.848 30.564-17.404 0 0 19.855-2.375 31.323-1.465 0 0 13.236.553 17.177 2.322 0 0 8.083 3.658 15.207 10.405h2.195s3.08 3.14 3.737 4.58c0 0 .5 1.209.5 6.59v9.285s.174 2.452-.842 5.867c0 0 .267-5.293-.099-8.263 0 0-.421-4.526-3.822-4.757 0 0-3.485-.345-5.455 6.28 0 0-1.719 7.073-2.123 10.937l-.216.96s-7.951 1.566-9.77 2.198l-18.513 4.876-6.71 1.913s1.588-7.397-.307-14.066c0 0-1.559-4.655-5.452-5.663 0 0-5.103-1.469-9 6.321-2.915 5.829-3.751 12.201-3.903 14.096 0 0-.427 3.185-.668 3.525 0 0-29.143-.365-33.196-.507z" transform="translate(.268 1) translate(.924 .45)"/>
            <path d="M126.52 39.487c0-6.102-2.076-11.048-4.637-11.048-2.56 0-4.635 4.946-4.635 11.048 0 6.1 2.075 11.046 4.635 11.046 2.56 0 4.636-4.945 4.636-11.047h0z" transform="translate(.268 1) translate(.924 .45)"/>
            <path d="M111.656 45.108c.848 3.07 2.35 5.105 4.038 5.105l6.078.317m3.577-11.043c0-4.237-1.497-7.671-3.342-7.671-1.846 0-3.343 3.434-3.343 7.67 0 4.237 1.497 7.671 3.343 7.671 1.845 0 3.342-3.434 3.342-7.67zM79.383 50.88c.699-7.894-2.972-14.045-7.073-14.045-4.102 0-7.781 6.12-7.781 14.045 0 7.924 3.446 13.66 7.063 13.66 3.725 0 7.083-5.678 7.79-13.66z" transform="translate(.268 1) translate(.924 .45)"/>
            <path d="M77.335 50.828c.506-5.705-2.147-10.15-5.112-10.15-2.964 0-5.623 4.423-5.623 10.15 0 5.726 2.49 9.873 5.104 9.873 2.693 0 5.12-4.105 5.63-9.873h0zm-19.17 6.751c1.306 3.924 3.632 6.275 6 6.275l7.312.688m-54.864-8.237c1.333 2.689 3.2 4.296 5.113 4.296 1.793 0 3.5-1.314 4.868-3.567" transform="translate(.268 1) translate(.924 .45)"/>
            <path d="M9.146 55.597c1.344 2.7 3.235 4.317 5.154 4.317l7.152.676M95.73.65c-2.561 0-7.517.366-10.386 2.944 0 0-4.699 5.557-9.498 16.166 0 0-3.168.762-5.88.721l-19.558-1.1s-19.554-.587-23.444-.284M49.109 4.413s29.218-1.19 35.657-.091" transform="translate(.268 1) translate(.924 .45)"/>
            <path d="M95.016 18.414l6.09-1.385 18.488-3.362s-7.564-9.356-18.21-11.037c0 0-6.106-1.008-10.7.448 0 0-3.082.617-5.155 4.65 0 0-3.697 6.164-6.443 12.718 0 0-1.064 1.738 1.569 1.233l3.787-.862" transform="translate(.268 1) translate(.924 .45)"/>
            <path d="M95.79 2.304s3.578 6.937 5.315 14.725c0 0 .952 3.698 1.96 4.427l.225 5.994-.28 15.8.056 1.456M114.09 8.468s1.136 5.235 1.136 5.993m-32.561-1.564s.955 4.991 1.052 6.273" transform="translate(.268 1) translate(.924 .45)"/>
            <path d="M83.136 20.72c4.81.504 10.455-.68 10.455-.68 3.077-1.283.288-3.687.288-3.687-3.91-3.078-8.047-1.475-8.047-1.475-2.244.865-1.538 4.36-1.538 4.36l-.992-.13s-.882.517-.212 1.6c0 0 .01.008.046.012h0z" transform="translate(.268 1) translate(.924 .45)"/>
            <path d="M115.227 14.461s1.516 2.912 2.425 3.48c0 0 .531 7.2-.833 12.504 0 0-1.97 7.881-3.524 11.178l-10.307 3.07-20.195 5.228.227-17.657s-1.288-9.549-1.895-10.686M3.442 30.465c.003.47.388 1.553 2.645 2.18 0 0 14.296 2.718 28.21 1.522 0 0 9.84-.76 11.958-1.087 0 0 11.198-4.022 15.492-4.784 0 0 5.49-3.043 10.056-4.185 0 0 1.964-.357 2.174-1.957l.052-2.036 1.817-.358 3.838-.758M5.582 35.182s11.752 3.232 26.639 1.518c0 0-2.057 4.798-3.869 5.729 0 0-4.995 1.86-12.487 1.518 0 0-6.806-.49-10.185-3.28 0 0-.294-.931-.343-1.96 0 0 0-2.79.245-3.525h0zM3.73 53.245v-3.638s.668-1.182 2.17-.864c0 0 11.572 1.683 19.215 1.547 0 0 2.131-.137 2.95 1.274 0 0 .975 1.865 1.202 3.867 0 0-6.898.273-16.453-.773 0 0-7.222-1.006-9.084-1.413z" transform="translate(.268 1) translate(.924 .45)"/>
            <path d="M1.527 35.267s1.418 2.58 1.752 2.792c0 0 .016-5.132 1.503-5.92m33.678 1.716s-1.768 3.349-1.844 6.38c0 0 0 .77 1.102.612 0 0 12.488-1.687 15.86-2.559 0 0 1.141-.307 1.554-1.25 0 0 2.16-5.267 5.532-7.692 0 0 .888-.64-.16-.787m-23.59 21.625s9.875-.772 12.574-1.39c0 0 2.623-.694 3.78 1.62l1.623 3.203s.296.536-.498.683l-15.175.218s-1.42.118-1.87-1.616c0 0-.352-2.185-.434-2.718h0zM.189 45.754s1.74 2.295 2.12 2.523c0 0 .21 2.99.285 3.596 0 0-1.164.132-1.77-.399m100.752-28.543c.056.298-.96.744-2.273.996-1.312.254-2.422.218-2.48-.08-.057-.297.96-.743 2.272-.996 1.313-.253 2.423-.217 2.48.08zm14.544-3.905c.057.297-.684.69-1.656.877-.973.188-1.807.099-1.864-.199-.058-.297.684-.69 1.656-.877.972-.188 1.807-.098 1.864.198h0z" transform="translate(.268 1) translate(.924 .45)"/>
        </g>
        <path fill="#5A6977" fill-rule="nonzero" d="M42.527 81.748h-3.879v4.082H37.43v-9.242h5.725v1.003h-4.507v3.16h3.879v.997zm5.224-1.733c-.178-.03-.37-.044-.578-.044-.77 0-1.293.328-1.568.984v4.875h-1.174v-6.868h1.143l.019.793c.385-.613.93-.92 1.637-.92.229 0 .402.03.52.089v1.091zm.768 2.317c0-.673.132-1.278.397-1.815.264-.538.632-.952 1.104-1.244.472-.292 1.01-.438 1.616-.438.935 0 1.691.324 2.269.971.578.647.866 1.509.866 2.583v.083c0 .669-.128 1.268-.384 1.8-.256.53-.622.944-1.098 1.24-.476.297-1.023.445-1.64.445-.932 0-1.686-.324-2.264-.971-.577-.648-.866-1.505-.866-2.571v-.083zm1.18.14c0 .762.177 1.373.53 1.834.354.462.827.692 1.42.692.596 0 1.07-.233 1.421-.701.351-.468.527-1.123.527-1.965 0-.753-.179-1.363-.536-1.831-.358-.468-.833-.701-1.425-.701-.58 0-1.048.23-1.403.692-.356.46-.533 1.12-.533 1.98zm7.656-3.51l.038.863c.525-.66 1.21-.99 2.057-.99 1.451 0 2.183.819 2.196 2.456v4.539h-1.174v-4.545c-.005-.495-.118-.861-.34-1.098-.222-.237-.568-.356-1.038-.356-.38 0-.715.102-1.003.305-.288.203-.512.47-.673.8v4.894h-1.174v-6.868h1.11zm7.655-1.663v1.663h1.282v.907H65.01v4.26c0 .275.057.481.172.619.114.137.308.206.584.206.135 0 .321-.025.558-.076v.952c-.309.085-.61.127-.901.127-.525 0-.92-.159-1.187-.476-.267-.318-.4-.768-.4-1.352v-4.26h-1.25v-.907h1.25v-1.663h1.174zm7.28 7.534h4.38v.997h-5.604v-9.242h1.225v8.245zm8.437 1.124c-.931 0-1.689-.306-2.273-.917-.584-.612-.875-1.43-.875-2.454v-.216c0-.68.13-1.29.39-1.825.26-.535.624-.954 1.092-1.256.467-.303.974-.454 1.52-.454.893 0 1.587.294 2.082.882.495.588.743 1.43.743 2.526v.49h-4.653c.017.676.215 1.223.593 1.64.38.417.86.625 1.444.625.415 0 .766-.084 1.054-.254.288-.169.54-.393.755-.672l.718.558c-.576.885-1.439 1.327-2.59 1.327zM80.58 79.8c-.474 0-.872.172-1.193.517-.322.345-.52.828-.597 1.45h3.44v-.088c-.034-.597-.194-1.06-.482-1.387-.288-.328-.677-.492-1.168-.492zm4.76 6.03v-5.96h-1.085v-.908h1.086v-.705c0-.736.196-1.305.59-1.707.394-.402.95-.603 1.67-.603.27 0 .539.036.806.108l-.064.952c-.199-.038-.41-.057-.635-.057-.38 0-.675.11-.882.333-.207.222-.311.54-.311.955v.724h1.466v.907h-1.466v5.96h-1.174zm5.53-8.531v1.663h1.282v.907H90.87v4.26c0 .275.058.481.172.619.114.137.309.206.584.206.135 0 .321-.025.558-.076v.952c-.308.085-.609.127-.9.127-.526 0-.921-.159-1.188-.476-.267-.318-.4-.768-.4-1.352v-4.26h-1.25v-.907h1.25v-1.663h1.174z" transform="translate(.268 1)"/>
        <g stroke="#636A74" stroke-linecap="round" stroke-linejoin="round">
            <path d="M17.576 15.102S27.69 4.912 35.989 2.658c0 0 7.187-1.635 15.007-2.152 6.351-.42 17.799-.606 25.406 0 4.016.319 9.758.727 13.32 1.41 0 0 8.052.924 20.52 8.964 0 0 5.791 3.78 6.132 4.07 0 0 .681.392 1.6.562 0 0 5.593.705 6.172 1.08 0 0 .88.998 1.255 1.544 0 0 1.67 2.077 2.861 3.1 0 0 1.467 1.192 1.431 8.198 0 0 1.294 1.544 1.43 3.656 0 0 .285 9.51-.851 12.979-.647 1.975-2.248 2.486-9.538 4.121 0 0-17.288 2.202-36.752 3.175 0 0-13.471 1.64-15.878 2.408 0 0-2.51-.359-3.125-2.459 0 0-3.431-13.778-7.222-17.415-1.6-1.535-5.378-4.712-8.81-1.024 0 0-3.688 3.432-3.175 11.73 0 0 .241 4.862 1.368 6.494 0 0-22.471-5.06-24.264-5.317 0 0-9.476-2.1-10.039-2.253 0 0-1.844-12.522-4.866-16.095 0 0-3.022-4.65-5.583-1.064 0 0-2.612 3.841-1.127 12.959 0 0 .171.735.521 1.673 0 0-1.408-.256-1.664-5.12 0 0 0-7.084 1.208-10.814 1.122-3.464 2.21-4.32 3.759-5.304 1.558-.991 4.417-2.16 6.674-3.17" transform="translate(.268 1) matrix(-1 0 0 1 277.74 .45)"/>
            <path d="M48.11.747S61.135-.654 72.74 16.555c0 0 18.361-1.563 41.925-1.504 0 0-11.87-8.741-19.312-10.926 0 0-7.086-.709-17.657-.709 0 0-12.513.343-17.036 1.055" transform="translate(.268 1) matrix(-1 0 0 1 277.74 .45)"/>
            <path d="M81.272 18.534l42.874-1.942s2.764 6.49.626 14.71c-.345 1.327-.708 3.54-5.164 3.962 0 0-12.68 2.002-26.931 2.002h-.938s-3.385-.745-4.786-7.463c-.632-3.029-3.753-10.061-5.681-11.24l-2.637-.146s-1.433-.615.514-2.268" transform="translate(.268 1) matrix(-1 0 0 1 277.74 .45)"/>
            <path d="M126.672 19.627s-.595.844-5.724 2.695c0 0-.117.187-.187.609 0 0-.633 5.316-.657 5.644 0 0-.116.937 1.055.68 0 0 3.754-.446 4.126-.434 0 0 .769.106 2.783.949 0 0 1.283.663 1.625-.336M71.29 22.409s10.364-1.262 21.098 1.46c0 0 .223-.075.594.914 0 0 1.954 5.367 1.979 5.442l.024.074s.1.643-.94.594l-6.688.144-5.976 1.909s-2.275.643-3.537-.297c0 0-6.505-5.12-7.94-7.866 0 0-1.162-1.608.594-2.25l.792-.124h0zm-53.72-6.291S26.949 6.92 32.904 4.617c0 0 8.605-3.804 17.632-.73 0 0 6.223 1.997 10.872 11.255 0 0 .844 1.882.96 2.497L34.17 18.1l-15.071.615 3.334-7.03m36.453-.734l-3.76 6.807" transform="translate(.268 1) matrix(-1 0 0 1 277.74 .45)"/>
            <path d="M54.815 17.763s-1.712 3.148-3.46 4.354c0 0-4.731 10.2-5.754 14.632 0 0-1.236 5.755-1.705 10.187 0 0-.085 1.705-1.193 1.663L15.04 43.783s-.836-.25-1.024-1.833c0 0-1.491-9.207-1.065-13.342 0 0 .213-3.623.511-4.347 0 0 2.954-5.243 3.167-5.243m25.688-16.32s-6.089 9.056-7.668 15.394" transform="translate(.268 1) matrix(-1 0 0 1 277.74 .45)"/>
            <path d="M34.17 18.1s-1.48 3.13-3.06 4.626c0 0-1.152 4.646-.555 13.128 0 0 1.023 6.48.469 9.292 0 0 .209.888.474 1.502m29.41 3.485c0 7.514-3.131 13.605-6.992 13.605-2.843 0-6.992-6.091-6.992-13.605 0-7.513 3.13-13.604 6.991-13.604 3.862 0 6.992 6.09 6.992 13.604h0z" transform="translate(.268 1) matrix(-1 0 0 1 277.74 .45)"/>
            <path d="M68.356 55.7c-1.057 4.902-2.72 7.653-6.45 8.345 0 0-5.908 1.143-8.298-.308m5.762-13.33c0 5.346-2.356 9.68-5.262 9.68-2.14 0-5.263-4.334-5.263-9.68s2.356-9.68 5.263-9.68c2.906 0 5.262 4.334 5.262 9.68h0zm-49.336-9.86c.248 6.101-2.082 10.308-4.286 10.308-1.301 0-3.99-4.614-3.99-10.304 0-5.691 1.158-10.057 3.99-10.305 2.195-.192 4.054 4.616 4.286 10.302h0z" transform="translate(.268 1) matrix(-1 0 0 1 277.74 .45)"/>
            <path d="M8.921 40.548c.19 4.67-1.265 7.89-3.173 7.89-1.113 0-3.163-3.532-3.163-7.888 0-4.357 1.282-7.573 2.814-7.573 1.986 0 3.344 3.217 3.522 7.57h0zm7.527 5.85c-.802 2.868-1.861 4.38-3.478 4.611 0 0-5.512.752-7.637-.281M17.46 14.939v-.922s.09-.3-.338-.371c0 0-5.812.03-6.17 3.265-.08.727.323 1.878 2.08 2.105 0 0 3.002.018 3.662 0 .643-.018.702-.357.81-1.624l-.044-2.453h0zm1.74 3.769l-1.946.092m59.47 12.928s-1.17.412-1.613 1.442c0 0-.63 1.49-2.849 1.578l-12.702.859-1.986.118M100.39 52.26c1.538 3.236 4.371 5.407 7.613 5.407 3.733 0 6.925-2.878 8.22-6.948" transform="translate(.268 1) matrix(-1 0 0 1 277.74 .45)"/>
            <path d="M121.005 50.13c-.89 3.352-3.043 5.907-5.758 6.96 0 0-5.508 1.691-9.47.226m-23.062-3.793s3.013-1.558 4.191-3.393c0 0 1.531-2.307 5.066-2.483 0 0 22.784-2.003 29.033-2.592 0 0 6.19-.825 7.133-.353 0 0 1.296.648.59 2.415 0 0-.362 1.02-.998 1.246M29.41 25.56c.015.293-1.078.585-2.44.652-1.362.067-2.478-.116-2.492-.409-.015-.292 1.078-.584 2.44-.65 1.362-.068 2.478.115 2.492.407zm18.26-.635c.014.293-1.162.589-2.627.66-1.466.073-2.665-.105-2.68-.398-.013-.293 1.162-.588 2.628-.66 1.465-.073 2.664.106 2.678.398z" transform="translate(.268 1) matrix(-1 0 0 1 277.74 .45)"/>
        </g>
        <path fill="#5A6977" fill-rule="nonzero" d="M186.498 82.091h-2.171v3.739h-1.225v-9.242h3.06c1.04 0 1.841.237 2.402.71.56.475.841 1.164.841 2.07 0 .576-.156 1.077-.467 1.504-.31.428-.743.747-1.298.959l2.171 3.923v.076h-1.307l-2.006-3.739zm-2.171-.996h1.872c.606 0 1.087-.157 1.445-.47.357-.313.536-.732.536-1.257 0-.571-.17-1.01-.511-1.314-.34-.305-.833-.46-1.476-.463h-1.866v3.504zm9.452 4.862c-.931 0-1.689-.306-2.273-.917-.584-.612-.876-1.43-.876-2.454v-.216c0-.68.13-1.29.39-1.825.26-.535.625-.954 1.092-1.256.468-.303.975-.454 1.52-.454.893 0 1.587.294 2.083.882.495.588.742 1.43.742 2.526v.49h-4.653c.017.676.215 1.223.594 1.64.379.417.86.625 1.444.625.415 0 .766-.084 1.054-.254.287-.169.54-.393.755-.672l.717.558c-.575.885-1.438 1.327-2.59 1.327zm-.146-6.157c-.474 0-.872.172-1.194.517-.321.345-.52.828-.596 1.45h3.44v-.088c-.034-.597-.195-1.06-.482-1.387-.288-.328-.678-.492-1.168-.492zm8.423 6.03c-.068-.136-.123-.377-.165-.724-.546.567-1.198.85-1.955.85-.677 0-1.233-.19-1.666-.574-.434-.383-.651-.868-.651-1.456 0-.716.272-1.271.816-1.667.543-.395 1.308-.593 2.294-.593h1.143v-.54c0-.41-.123-.737-.368-.98-.246-.244-.608-.365-1.086-.365-.419 0-.77.105-1.054.317-.283.212-.425.468-.425.768h-1.18c0-.343.121-.674.365-.993.243-.32.573-.573.99-.759.417-.186.875-.28 1.374-.28.791 0 1.411.199 1.86.594.448.396.681.94.698 1.635v3.16c0 .631.08 1.133.241 1.505v.102h-1.231zm-1.949-.895c.368 0 .717-.095 1.048-.286.33-.19.569-.438.717-.742v-1.41h-.92c-1.44 0-2.159.421-2.159 1.264 0 .368.123.655.368.863.246.207.561.31.946.31zm8.1-4.92c-.178-.03-.37-.044-.578-.044-.77 0-1.293.328-1.568.984v4.875h-1.174v-6.868h1.143l.019.793c.385-.613.93-.92 1.637-.92.229 0 .402.03.52.089v1.091zm7.87 2.076h-2.17v3.739h-1.225v-9.242h3.06c1.04 0 1.841.237 2.402.71.56.475.841 1.164.841 2.07 0 .576-.155 1.077-.466 1.504-.311.428-.744.747-1.299.959l2.171 3.923v.076h-1.307l-2.006-3.739zm-2.17-.996h1.873c.605 0 1.086-.157 1.444-.47.357-.313.536-.732.536-1.257 0-.571-.17-1.01-.511-1.314-.34-.305-.833-.46-1.476-.463h-1.866v3.504zm7.877 4.735h-1.174v-6.868h1.174v6.868zm-1.27-8.69c0-.19.06-.351.175-.482.117-.132.29-.197.518-.197.228 0 .402.065.52.197.119.13.178.292.178.482s-.06.35-.178.476c-.118.127-.292.19-.52.19-.229 0-.401-.063-.518-.19-.116-.127-.174-.286-.174-.476zm2.87 5.199c0-1.071.248-1.923.743-2.555.495-.633 1.15-.95 1.967-.95.838 0 1.492.297 1.962.89l.057-.762h1.073v6.703c0 .889-.264 1.589-.79 2.1-.527.513-1.235.769-2.124.769-.495 0-.98-.106-1.453-.317-.474-.212-.836-.502-1.086-.87l.61-.705c.503.622 1.119.934 1.847.934.571 0 1.016-.161 1.336-.483.32-.322.48-.774.48-1.358v-.59c-.47.541-1.112.812-1.924.812-.804 0-1.455-.324-1.952-.971-.497-.648-.746-1.53-.746-2.647zm1.18.133c0 .774.16 1.383.477 1.825.317.442.761.663 1.333.663.74 0 1.284-.336 1.631-1.009v-3.136c-.36-.656-.9-.984-1.619-.984-.57 0-1.017.223-1.339.667-.322.444-.482 1.102-.482 1.974zm7.567-2.679c.52-.639 1.198-.958 2.031-.958 1.452 0 2.184.819 2.197 2.456v4.539h-1.175v-4.545c-.004-.495-.117-.861-.34-1.098-.221-.237-.567-.356-1.037-.356-.381 0-.715.102-1.003.305-.288.203-.512.47-.673.8v4.894h-1.174v-9.75h1.174v3.713zm7.58-2.494v1.663h1.281v.907h-1.282v4.26c0 .275.057.481.172.619.114.137.308.206.584.206.135 0 .321-.025.558-.076v.952c-.309.085-.61.127-.901.127-.525 0-.92-.159-1.187-.476-.267-.318-.4-.768-.4-1.352v-4.26h-1.25v-.907h1.25v-1.663h1.174z" transform="translate(.268 1)"/>
    </g>
</svg>
