<svg width="18" height="18" viewBox="0 0 16 16" xmlns="http://www.w3.org/2000/svg"><title>Operable</title><g fill="none" fillRule="evenodd"><path d="M4.312 4.904H13.4l-.968-2.936H5.295l-.983 2.936zm8.12 3.232c.27 0 .5-.093.687-.28.186-.188.28-.422.28-.703 0-.282-.094-.513-.28-.695-.188-.183-.417-.274-.688-.274-.27 0-.502.094-.695.28-.193.19-.29.418-.29.69 0 .27.095.5.282.693.187.193.42.29.702.29zm-7.137 0c.27 0 .5-.093.688-.28.187-.188.28-.422.28-.703 0-.282-.093-.513-.28-.695-.188-.183-.417-.274-.688-.274-.27 0-.502.094-.694.28-.192.19-.288.418-.288.69 0 .27.093.5.28.693.188.193.422.29.703.29zM13.37 1.64l1.342 3.904v5.216c0 .177-.063.328-.188.453s-.276.187-.453.187h-.67c-.177 0-.328-.062-.453-.187s-.187-.276-.187-.453v-.672H4.952v.672c0 .177-.063.328-.187.453-.125.125-.276.187-.453.187H3.64c-.177 0-.328-.062-.453-.187S3 10.937 3 10.76V5.544L4.343 1.64c.062-.198.182-.354.36-.468.176-.115.374-.172.592-.172h7.137c.218 0 .414.057.585.172.172.114.29.27.352.468z" fill="#a1a1a1"/><path d="M4.5 16C2.015 16 0 13.985 0 11.5S2.015 7 4.5 7 9 9.015 9 11.5 6.985 16 4.5 16z" fill="#a1a1a1"/><path d="M4.5 16C2.015 16 0 13.985 0 11.5S2.015 7 4.5 7 9 9.015 9 11.5 6.985 16 4.5 16zm0-.75c2.07 0 3.75-1.68 3.75-3.75 0-2.07-1.68-3.75-3.75-3.75C2.43 7.75.75 9.43.75 11.5c0 2.07 1.68 3.75 3.75 3.75z" fill="#FFF" fillRule="nonzero"/><path fill="#FFF" d="M4.12 12.413L6.536 10l.707.707-3.122 3.12L2 11.708 2.707 11"/></g></svg>